<svg id="Слой_1" data-name="Слой 1" xmlns="http://www.w3.org/2000/svg" width="512" height="512" viewBox="0 0 512 512">
  <defs>
    <style>
      .cls-1 {
        fill: #a5a5a5;
      }
    </style>
  </defs>
  <g>
    <g>
      <path class="cls-1" d="M319.71,167a13.74,13.74,0,0,0-14,14V282.47a14.14,14.14,0,0,0,28.28,0V181A13.83,13.83,0,0,0,319.71,167Z"/>
      <path class="cls-1" d="M468.58,194.86h0a47.24,47.24,0,0,0-24.13-24.13A43.79,43.79,0,0,0,426.51,167H389.2A32.83,32.83,0,0,0,366.4,176l-.62.61A32,32,0,0,0,356.11,200v82.43a14.15,14.15,0,0,0,28.29,0V258.64h42.8a45.57,45.57,0,0,0,17.44-3.94,48.38,48.38,0,0,0,14.24-9.64,45,45,0,0,0,13.47-32.25A43.76,43.76,0,0,0,468.58,194.86ZM444.06,212.8a16.35,16.35,0,0,1-1.37,6.7,18.37,18.37,0,0,1-3.89,5.67A19,19,0,0,1,433,229a16.3,16.3,0,0,1-6.48,1.35H384.4V200a4.12,4.12,0,0,1,1.15-3.22l.83-.75a4.7,4.7,0,0,1,2.82-.82h37.31A16.3,16.3,0,0,1,433,196.6a19.07,19.07,0,0,1,5.81,3.83,18.45,18.45,0,0,1,3.89,5.66A16,16,0,0,1,444.06,212.8Z"/>
      <path class="cls-1" d="M272.34,167a13.17,13.17,0,0,0-12.66,8.64l-38.9,92.89-.36.26c-.27.12-.54.14-1.19-.11l-.21-.09a.68.68,0,0,1-.34-.43l-38.81-93.07-.47-.92A13.89,13.89,0,0,0,167.25,167H53.47a13.2,13.2,0,0,0-13.19,13.19v1.9a13.2,13.2,0,0,0,13.19,13.19H94v87.23a14.14,14.14,0,0,0,28.28,0V195.25h36l34.87,83.47a28.67,28.67,0,0,0,4.26,7.13,27.7,27.7,0,0,0,5.64,5.29l1.75,1.3a29,29,0,0,0,15,4.09,28.7,28.7,0,0,0,15.5-4.4l1.32-.8a30,30,0,0,0,10-12.57l39.54-94.66V181A13.65,13.65,0,0,0,272.34,167Z"/>
    </g>
    <g>
      <path class="cls-1" d="M303.44,325.4a2,2,0,0,0-2.18,2.18v57.66a2,2,0,0,0,2.18,2.18,2.05,2.05,0,0,0,2.29-2.18V327.58A2.05,2.05,0,0,0,303.44,325.4Z"/>
      <path class="cls-1" d="M361.81,352a20.17,20.17,0,0,0-4.28-6.19,20.65,20.65,0,0,0-6.24-4.16,18.94,18.94,0,0,0-7.5-1.52H324.64a2.05,2.05,0,0,0-2.18,2.29,2,2,0,0,0,2.18,2.19h19.15a14.12,14.12,0,0,1,4.92.87,16.59,16.59,0,0,1,4.34,2.37,14.88,14.88,0,0,1,3.34,3.6,14.7,14.7,0,0,1,2,4.57l.2.77H331.78a15,15,0,0,0-6,1.2,16,16,0,0,0-4.89,3.24,14.77,14.77,0,0,0-3.31,4.85,15.53,15.53,0,0,0,0,12,15.51,15.51,0,0,0,8.2,8.2,15.16,15.16,0,0,0,6,1.19h12a18.94,18.94,0,0,0,7.5-1.52,20,20,0,0,0,10.52-10.35,18.6,18.6,0,0,0,1.58-7.62V359.6A18.64,18.64,0,0,0,361.81,352Zm-18,31h-12a10.6,10.6,0,0,1-4.29-.86,11.1,11.1,0,0,1-3.44-2.32,11.27,11.27,0,0,1-2.32-3.44,10.6,10.6,0,0,1-.85-4.29,10.35,10.35,0,0,1,.85-4.18,11,11,0,0,1,2.33-3.43,10.91,10.91,0,0,1,3.43-2.33,10.67,10.67,0,0,1,4.29-.85h27v6.68a14.13,14.13,0,0,1-1.18,5.7,15.74,15.74,0,0,1-3.19,4.79,15.38,15.38,0,0,1-4.79,3.3A14.44,14.44,0,0,1,343.79,383Z"/>
      <path class="cls-1" d="M418.12,351.72a19.74,19.74,0,0,0-10.3-10.3,18.48,18.48,0,0,0-7.46-1.53h-8.13a22.89,22.89,0,0,0-7.45,1.46,16.13,16.13,0,0,0-6.18,4.19l-1.15,1.2V326.82a2.1,2.1,0,0,0-2.29-2.29,2.06,2.06,0,0,0-2.19,2.29v41.33a19,19,0,0,0,1.53,7.5,19,19,0,0,0,10.25,10.25,18.94,18.94,0,0,0,7.5,1.52h8.11a18.64,18.64,0,0,0,7.46-1.52,20.43,20.43,0,0,0,6.13-4.11,19.13,19.13,0,0,0,5.69-13.64v-9A18.56,18.56,0,0,0,418.12,351.72ZM400.36,383h-8.11a14.07,14.07,0,0,1-5.74-1.18,15.17,15.17,0,0,1-7.88-7.88,14.1,14.1,0,0,1-1.18-5.74v-9.3a13.46,13.46,0,0,1,1.18-5.58,15,15,0,0,1,3.24-4.63,15.19,15.19,0,0,1,4.74-3.14,14.38,14.38,0,0,1,5.64-1.13h8.11a14.15,14.15,0,0,1,5.75,1.18,15.26,15.26,0,0,1,7.88,7.88,14.13,14.13,0,0,1,1.17,5.74v9a14.13,14.13,0,0,1-1.17,5.74,15.71,15.71,0,0,1-3.19,4.69,15.52,15.52,0,0,1-4.69,3.19A14.15,14.15,0,0,1,400.36,383Z"/>
      <path class="cls-1" d="M468.17,367.56a19.25,19.25,0,0,0-7.33-3.89,53,53,0,0,0-9.28-1.81,79.06,79.06,0,0,1-9.05-1.5,19.1,19.1,0,0,1-6.75-2.85,6.2,6.2,0,0,1-2.49-5.48,7.34,7.34,0,0,1,7.34-7.33h17.63a7,7,0,0,1,5.18,2.15l.4.39a7.54,7.54,0,0,1,1.17,1.91,5.05,5.05,0,0,1,.48,2v1a2,2,0,0,0,2.18,2.18,2.05,2.05,0,0,0,2.29-2.18,2,2,0,0,1,0-.44,3,3,0,0,0,.07-.64,8.91,8.91,0,0,0-.94-3.86,13.83,13.83,0,0,0-2.21-3.29l-.32-.33a11.43,11.43,0,0,0-8.34-3.47H440.61A11.45,11.45,0,0,0,436,341a12.12,12.12,0,0,0-3.76,2.54,12.68,12.68,0,0,0-2.58,3.74,11.17,11.17,0,0,0-1,4.71c0,3.54,1.12,6.29,3.31,8.16a20.66,20.66,0,0,0,7.63,4.05,48.77,48.77,0,0,0,9.24,1.81c3.13.33,5.92.71,8.25,1.13a31.91,31.91,0,0,1,3.38.9,11.84,11.84,0,0,1,3.09,1.51A8.29,8.29,0,0,1,465.8,372a6.59,6.59,0,0,1,.86,3.53,7.36,7.36,0,0,1-7.34,7.34H440.06a7.6,7.6,0,0,1-2.59-.49,7.72,7.72,0,0,1-2.36-1.38,7.4,7.4,0,0,1-1.67-2,4.72,4.72,0,0,1-.6-2.37V375.4a2.11,2.11,0,0,0-2.29-2.3,2,2,0,0,0-2.06,1.58,9,9,0,0,0-.24,2,9.25,9.25,0,0,0,1,4.14,11.12,11.12,0,0,0,2.68,3.43,13.76,13.76,0,0,0,3.72,2.29,11.37,11.37,0,0,0,4.41.87h19.26a11.17,11.17,0,0,0,4.71-1,12.71,12.71,0,0,0,3.74-2.59,12.07,12.07,0,0,0,2.54-3.75,11.48,11.48,0,0,0,.93-4.59C471.24,372,470.21,369.37,468.17,367.56Z"/>
    </g>
  </g>
</svg>
